<svg width="21" height="20" viewBox="0 0 21 20" fill="none" xmlns="http://www.w3.org/2000/svg">
<path d="M10.6331 2.59411C13.7831 2.59411 15.6695 3.15774 16.5422 3.5032V10.3214C16.5496 11.2141 16.3071 12.0911 15.8422 12.8532C14.6212 14.7934 12.7882 16.2713 10.6331 17.0532C8.48077 16.276 6.64815 14.8048 5.42405 12.8714C4.95917 12.1092 4.7167 11.2323 4.72405 10.3396V3.52138C5.60586 3.16229 7.48768 2.61229 10.6331 2.61229V2.59411ZM10.6331 1.24865C5.43768 1.23047 3.36041 2.67138 3.36041 2.67138V10.3396C3.35543 11.4863 3.67024 12.6118 4.2695 13.5896C5.74781 15.924 8.00068 17.6635 10.6331 18.5032C13.2656 17.6635 15.5185 15.924 16.9968 13.5896C17.596 12.6118 17.9108 11.4863 17.9059 10.3396V2.67138C17.9059 2.67138 15.8286 1.23047 10.6331 1.23047V1.24865Z" fill="#788CFF"/>
<path d="M9.77874 11.4587C9.64878 11.4585 9.52162 11.4209 9.41243 11.3504C9.30325 11.2799 9.21666 11.1795 9.16299 11.0611C9.10932 10.9427 9.09084 10.8114 9.10975 10.6829C9.12866 10.5543 9.18417 10.4339 9.26965 10.336L12.3924 6.69959C12.5129 6.56216 12.6831 6.47825 12.8656 6.46632C13.048 6.45438 13.2277 6.5154 13.3651 6.63596C13.5025 6.75651 13.5864 6.92672 13.5984 7.10914C13.6103 7.29156 13.5493 7.47125 13.4287 7.60868L10.3015 11.245C10.2354 11.3169 10.1543 11.3733 10.064 11.4102C9.9736 11.4472 9.87622 11.4637 9.77874 11.4587Z" fill="#788CFF"/>
<path d="M9.77786 11.4595C9.62587 11.4607 9.47813 11.4093 9.35968 11.314L7.93696 10.1959C7.7947 10.0837 7.70281 9.91971 7.6815 9.73984C7.66019 9.55998 7.71121 9.37901 7.82332 9.23676C7.93543 9.09451 8.09947 9.00262 8.27933 8.98131C8.45919 8.96 8.64016 9.01101 8.78241 9.12312L10.2006 10.2459C10.271 10.3009 10.3298 10.3693 10.3737 10.4471C10.4175 10.525 10.4456 10.6107 10.4561 10.6995C10.4667 10.7882 10.4596 10.8781 10.4352 10.9641C10.4109 11.0501 10.3698 11.1304 10.3142 11.2004C10.251 11.2821 10.1696 11.3481 10.0765 11.393C9.98345 11.438 9.88122 11.4607 9.77786 11.4595Z" fill="#788CFF"/>
</svg>
