<svg width="22" height="22" viewBox="0 0 22 22" fill="none" xmlns="http://www.w3.org/2000/svg">
<g clip-path="url(#clip0_526_7932)">
<path d="M11 0C13.1756 0 15.3023 0.645139 17.1113 1.85383C18.9202 3.06253 20.3301 4.78049 21.1627 6.79048C21.9952 8.80047 22.2131 11.0122 21.7886 13.146C21.3642 15.2798 20.3166 17.2398 18.7782 18.7782C17.2398 20.3166 15.2798 21.3642 13.146 21.7886C11.0122 22.2131 8.80047 21.9952 6.79048 21.1627C4.78049 20.3301 3.06253 18.9202 1.85383 17.1113C0.645139 15.3023 0 13.1756 0 11C0 8.08262 1.15893 5.28473 3.22183 3.22183C5.28473 1.15893 8.08262 0 11 0V0Z" fill="white"/>
<path d="M6.95004 10.9998L5.29367 12.6718L3.62109 10.9998L5.29309 9.32778L6.95004 10.9998ZM10.9998 6.95004L13.8528 9.80309L15.5254 8.13167L12.6567 5.29483L10.9998 3.62109L9.32778 5.29309L6.47473 8.14615L8.14615 9.81583L10.9998 6.94657V6.95004ZM16.7053 9.32778L15.0339 10.9998L16.7053 12.6718L18.3773 10.9998L16.7053 9.32778ZM10.9986 15.0345L8.13225 12.1814L6.47415 13.8528L9.3272 16.7053L10.9998 18.3779L12.6718 16.7053L15.5086 13.8523L13.8517 12.1797L10.998 15.0345H10.9986ZM10.9986 12.6567L12.6706 10.9853L10.9998 9.3272L9.32778 10.9998L10.9986 12.6567Z" fill="#EEB70C"/>
</g>
<defs>
<clipPath id="clip0_526_7932">
<rect width="22" height="22" fill="white"/>
</clipPath>
</defs>
</svg>
