<svg width="20" height="20" viewBox="0 0 20 20" fill="none" xmlns="http://www.w3.org/2000/svg">
<path d="M13.0421 2.29297C16.2662 2.29297 18.3327 4.87839 18.3327 8.35797C18.3327 11.0582 15.8893 14.0319 11.0754 17.3734C10.7593 17.5923 10.3839 17.7096 9.99935 17.7096C9.61482 17.7096 9.23943 17.5923 8.92331 17.3734C4.10935 14.0319 1.66602 11.0582 1.66602 8.35797C1.66602 4.87839 3.73247 2.29297 6.95664 2.29297C8.12102 2.29297 8.91081 2.69984 9.99935 3.62297C11.0881 2.70005 11.8777 2.29297 13.0421 2.29297ZM13.0421 3.5263C12.2327 3.5263 11.6698 3.82297 10.7577 4.6013C10.7154 4.63734 10.4764 4.84297 10.4073 4.90172C10.2933 4.99825 10.1487 5.05122 9.99935 5.05122C9.84997 5.05122 9.70543 4.99825 9.59143 4.90172C9.52227 4.84276 9.28331 4.63734 9.24102 4.6013C8.32893 3.82297 7.76602 3.5263 6.95664 3.5263C4.49518 3.5263 2.91602 5.49464 2.91602 8.33526C2.91602 10.5013 5.13331 13.1896 9.6406 16.3065C9.74609 16.3793 9.8712 16.4182 9.99935 16.4182C10.1275 16.4182 10.2526 16.3793 10.3581 16.3065C14.8654 13.1898 17.0827 10.5013 17.0827 8.33526C17.0827 5.49464 15.5035 3.5263 13.0421 3.5263Z" fill="#F62222"/>
</svg>
