<svg width="21" height="20" viewBox="0 0 21 20" fill="none" xmlns="http://www.w3.org/2000/svg">
<path d="M10.6322 2.59411C13.7822 2.59411 15.6685 3.15774 16.5413 3.5032V10.3214C16.5486 11.2141 16.3061 12.0911 15.8413 12.8532C14.6202 14.7934 12.7872 16.2713 10.6322 17.0532C8.47979 16.276 6.64717 14.8048 5.42307 12.8714C4.95819 12.1092 4.71572 11.2323 4.72307 10.3396V3.52138C5.60489 3.16229 7.48671 2.61229 10.6322 2.61229V2.59411ZM10.6322 1.24865C5.43671 1.23047 3.35943 2.67138 3.35943 2.67138V10.3396C3.35445 11.4863 3.66927 12.6118 4.26852 13.5896C5.74683 15.924 7.9997 17.6635 10.6322 18.5032C13.2646 17.6635 15.5175 15.924 16.9958 13.5896C17.5951 12.6118 17.9099 11.4863 17.9049 10.3396V2.67138C17.9049 2.67138 15.8276 1.23047 10.6322 1.23047V1.24865Z" fill="#ACAFBC"/>
<path d="M9.77776 11.4587C9.6478 11.4585 9.52064 11.4209 9.41146 11.3504C9.30228 11.2799 9.21568 11.1795 9.16201 11.0611C9.10834 10.9427 9.08986 10.8114 9.10877 10.6829C9.12768 10.5543 9.18319 10.4339 9.26867 10.336L12.3914 6.69959C12.512 6.56216 12.6822 6.47825 12.8646 6.46632C13.047 6.45438 13.2267 6.5154 13.3641 6.63596C13.5016 6.75651 13.5855 6.92672 13.5974 7.10914C13.6093 7.29156 13.5483 7.47125 13.4278 7.60868L10.3005 11.245C10.2344 11.3169 10.1533 11.3733 10.063 11.4102C9.97263 11.4472 9.87524 11.4637 9.77776 11.4587Z" fill="#ACAFBC"/>
<path d="M9.77689 11.4595C9.62489 11.4607 9.47716 11.4093 9.35871 11.314L7.93598 10.1959C7.79373 10.0837 7.70184 9.91971 7.68053 9.73984C7.65922 9.55998 7.71023 9.37901 7.82234 9.23676C7.93446 9.09451 8.09849 9.00262 8.27835 8.98131C8.45822 8.96 8.63918 9.01101 8.78143 9.12312L10.1996 10.2459C10.27 10.3009 10.3289 10.3693 10.3727 10.4471C10.4166 10.525 10.4446 10.6107 10.4551 10.6995C10.4657 10.7882 10.4586 10.8781 10.4343 10.9641C10.4099 11.0501 10.3688 11.1304 10.3133 11.2004C10.25 11.2821 10.1686 11.3481 10.0755 11.393C9.98247 11.438 9.88024 11.4607 9.77689 11.4595Z" fill="#ACAFBC"/>
</svg>
